# xmcd
#
# Track frame offsets: 
#        150
#        13055
#        30480
#        47050
#        64277
#        81432
#        98425
#        108610
#        120045
#        136877
#        149847
#        167032
#        182962
#        200684
#        217719
#        235939
#        251499
#        267844
#        282764
#
# Disc length: 4026 seconds
#
# Revision: 0
# Processed by: cddbd v1.5.2PL0 Copyright (c) Steve Scherf et al.
# Submitted via: ExactAudioCopy v0.99pb5
#
DISCID=0f0fb813
DTITLE=Old 97's - Satellite Rides
DYEAR=2001
DGENRE=Country
TTITLE0=King of All the World
TTITLE1=Rollerskate Skinny
TTITLE2=Buick City Complex
TTITLE3=Bird in a Cage
TTITLE4=Up the Devil's Pay
TTITLE5=What I Wouldn't Do
TTITLE6=Question
TTITLE7=Am I Too Late
TTITLE8=Weightless
TTITLE9=Can't Get a Line
TTITLE10=Designs on You
TTITLE11=Book of Poems
TTITLE12=Nervous Guy
TTITLE13=Barrier Reef (Live)
TTITLE14=Victoria (Live)
TTITLE15=Nineteen (Live)
TTITLE16=Timebomb (Live)
TTITLE17=Valentine (Live)
TTITLE18=Singular Girl
EXTD=
EXTT0=
EXTT1=
EXTT2=
EXTT3=
EXTT4=
EXTT5=
EXTT6=
EXTT7=
EXTT8=
EXTT9=
EXTT10=
EXTT11=
EXTT12=
EXTT13=
EXTT14=
EXTT15=
EXTT16=
EXTT17=
EXTT18=
PLAYORDER=
